<?xml version="1.0" encoding="utf-8"?>
<!-- Generator: Adobe Illustrator 12.0.1, SVG Export Plug-In . SVG Version: 6.00 Build 51448)  -->
<!DOCTYPE svg PUBLIC "-//W3C//DTD SVG 1.1//EN" "http://www.w3.org/Graphics/SVG/1.1/DTD/svg11.dtd" [
	<!ENTITY ns_svg "http://www.w3.org/2000/svg">
	<!ENTITY ns_xlink "http://www.w3.org/1999/xlink">
]>
<svg  version="1.1" id="Ebene_1" xmlns="&ns_svg;" xmlns:xlink="&ns_xlink;" width="307.149" height="172.078"
	 viewBox="0 0 307.149 172.078" overflow="visible" enable-background="new 0 0 307.149 172.078" xml:space="preserve">
<g>
	<g>
		<path fill="none" stroke="#878889" stroke-width="2" d="M73.346,141.525c15.594,18.087,38.657,29.553,64.413,29.553
			c42.025,0,76.905-30.492,83.785-70.553"/>
		<path fill="none" stroke="#878889" stroke-width="2" d="M73.346,141.525"/>
		<path fill="none" stroke="#878889" stroke-width="2" d="M207.138,100.525c-6.688,32.189-35.205,56.379-69.379,56.379
			c-16.656,0-31.958-5.761-44.056-15.379"/>
		<path fill="none" stroke="#878889" stroke-width="2" d="M68.192,99.525c-0.842-4.367-1.298-8.873-1.298-13.486
			c0-39.138,31.727-70.865,70.865-70.865c24.289,0,45.716,12.225,58.484,30.852"/>
		<path fill="none" stroke="#878889" stroke-width="2" d="M212.801,46.025C198.487,19.235,170.257,1,137.759,1
			C90.792,1,52.72,39.073,52.72,86.039c0,4.591,0.375,9.093,1.076,13.486"/>
		<g>
			<g>
				<path fill="none" stroke="#878889" stroke-width="2" d="M68.192,99.525"/>
			</g>
		</g>
	</g>
	<g>
		<path fill="#878889" d="M3.282,127.187c-0.144,7.057,4.944,9.216,11.184,9.216c3.6,0,9.072-1.968,9.072-6.96
			c0-3.888-3.888-5.424-7.056-6.191l-7.632-1.872c-4.032-1.008-7.728-2.929-7.728-8.256c0-3.36,2.16-9.648,11.808-9.648
			c6.768,0,12.72,3.648,12.672,10.656h-3.264c-0.192-5.232-4.512-7.872-9.36-7.872c-4.464,0-8.592,1.728-8.592,6.815
			c0,3.217,2.4,4.561,5.184,5.232l8.352,2.064c4.848,1.296,8.88,3.407,8.88,9.023c0,2.353-0.96,9.792-13.104,9.792
			c-8.112,0-14.064-3.647-13.68-12H3.282z"/>
		<path fill="#878889" d="M32.225,104.194h3.264v34.272h-3.264V104.194z"/>
		<path fill="#878889" d="M71.92,138.467h-2.352l-0.432-6.24h-0.096c-2.304,4.896-6.912,6.96-11.856,6.96
			c-10.8,0-16.176-8.496-16.176-17.855c0-9.36,5.376-17.856,16.176-17.856c7.2,0,13.056,3.888,14.304,11.376h-3.264
			c-0.432-3.936-4.512-8.592-11.04-8.592c-9.072,0-12.912,7.584-12.912,15.072c0,7.487,3.84,15.071,12.912,15.071
			c7.584,0,12-5.327,11.856-12.575H57.376v-2.784H71.92V138.467z"/>
		<path fill="#878889" d="M85.696,118.787c3.648,0.144,7.44-1.152,7.44-5.28c0-2.832-2.208-4.752-5.232-4.752
			c-3.792,0-5.664,3.408-5.568,6.863h-5.472c0.288-6.527,4.368-11.424,11.136-11.424c5.232,0,10.608,3.024,10.608,8.977
			c0,3.359-1.536,6.048-4.752,7.2v0.096c3.792,0.768,6.096,4.08,6.096,8.4c0,6.336-5.472,10.271-11.904,10.271
			c-7.776,0-11.664-4.704-11.808-11.712h5.472c-0.144,4.08,2.064,7.152,6.336,7.152c3.648,0,6.432-2.16,6.432-6
			c0-5.232-4.464-5.904-8.784-5.713V118.787z"/>
		<path fill="#878889" d="M105.088,104.194h14.208c10.56,0,15.12,7.681,15.12,17.137s-4.56,17.136-15.12,17.136h-14.208V104.194z
			 M111.088,133.57h5.904c9.408,0,11.424-5.376,11.424-12.239c0-6.864-2.016-12.24-11.424-12.24h-5.904V133.57z"/>
	</g>
	<g>
		<rect x="123.949" y="55.025" fill="#FECC05" width="10.4" height="10.8"/>
		<rect x="146.15" y="52.226" fill="#FECC05" width="14.799" height="15.8"/>
		<rect x="169.549" y="51.825" fill="#FECC05" width="16.399" height="17.601"/>
		<rect x="193.75" y="49.426" fill="#FECC00" width="19" height="20"/>
		<rect x="218.549" y="49.426" fill="#888889" width="18.6" height="20"/>
		<rect x="245.75" y="51.625" fill="#FECC05" width="16.6" height="17.2"/>
		<rect x="270.349" y="52.025" fill="#498677" width="14.601" height="16"/>
		<rect x="297.75" y="54.825" fill="#488677" width="9.399" height="10.601"/>
		<rect x="295.549" y="79.426" fill="#888889" width="10.2" height="10.6"/>
		<rect x="270.95" y="77.426" fill="#888889" width="14.8" height="16"/>
		<rect x="245.75" y="77.625" fill="#888889" width="15.6" height="17.4"/>
		<rect x="218.349" y="74.426" fill="#008BD0" width="18.601" height="20.6"/>
		<rect x="194.15" y="74.426" fill="#878889" width="19.399" height="20.6"/>
		<rect x="169.75" y="77.825" fill="#1A8AC6" width="16.4" height="17.2"/>
		<rect x="145.949" y="77.426" fill="#1A8AC6" width="15" height="15.6"/>
		<rect x="125.75" y="79.426" fill="#1A8AC6" width="10.6" height="11"/>
	</g>
	<g>
		<path fill="#D9DADB" d="M300.559,88.533c-2.477,0-4.239-1.855-4.239-4.309c0-2.593,1.959-4.309,4.239-4.309
			c2.258,0,4.217,1.716,4.217,4.309C304.776,86.816,302.817,88.533,300.559,88.533z M300.559,80.665
			c-1.866,0-3.317,1.463-3.317,3.56c0,1.958,1.268,3.56,3.317,3.56c1.844,0,3.295-1.452,3.295-3.56
			C303.854,82.128,302.403,80.665,300.559,80.665z M302.737,85.054c-0.196,1.095-1.025,1.774-2.039,1.774
			c-1.475,0-2.442-1.118-2.442-2.604c0-1.395,0.922-2.466,2.419-2.478c1.049,0,1.901,0.611,2.051,1.74h-0.783
			c-0.115-0.588-0.61-0.991-1.268-0.991c-0.968,0-1.497,0.772-1.497,1.729c0,1.002,0.587,1.854,1.521,1.854
			c0.68,0,1.163-0.427,1.244-1.025H302.737z"/>
	</g>
</g>
</svg>
